# xmcd CD database file
#
# Track frame offsets:
#	150
#	30588
#	73568
#	111950
#	141670
#	197425
#	224720
#	247520
#	274540
#	293583
#
# Disc length: 4790 seconds
#
# Revision: 1
# Processed by: cddbd v1.5.2PL0 Copyright (c) Steve Scherf et al.
# Submitted via: CDex 1.70beta3
#
DISCID=9412b40a
DTITLE=MONDAY満ちる - CO ～Collaborated Works of MM～
DYEAR=2007
DGENRE=Jazz
TTITLE0=YOU MAKE ME -STUDIO APARTMENT Remix-
TTITLE1=The Right Time (Jephte's King Street Vockal)
TTITLE2=TIGER EYES <English Ver.>
TTITLE3=The Real Thing feat. Monday Michiru meets Rasmus Faber
TTITLE4=Sunshine After The Rain (MAW 12” Mix)
TTITLE5=BUTTERFLY
TTITLE6=A.D.D.P.
TTITLE7=SHOOTING STAR feat. MONDAY MICHIRU
TTITLE8=New Beginnings
TTITLE9=Higher (Spiritual Life Vocal)
EXTD=YEAR: 2007
EXTT0=
EXTT1=
EXTT2=
EXTT3=
EXTT4=
EXTT5=
EXTT6=
EXTT7=
EXTT8=
EXTT9=
PLAYORDER=
